<svg width="24" height="25" viewBox="0 0 24 25" fill="none" xmlns="http://www.w3.org/2000/svg">
<g id="calendar">
<path id="Vector" d="M19 4.5H18V3.5C18 2.9 17.6 2.5 17 2.5C16.4 2.5 16 2.9 16 3.5V4.5H8V3.5C8 2.9 7.6 2.5 7 2.5C6.4 2.5 6 2.9 6 3.5V4.5H5C3.3 4.5 2 5.8 2 7.5V8.5H22V7.5C22 5.8 20.7 4.5 19 4.5ZM2 19.5C2 21.2 3.3 22.5 5 22.5H19C20.7 22.5 22 21.2 22 19.5V10.5H2V19.5ZM17 12.5C17.6 12.5 18 12.9 18 13.5C18 14.1 17.6 14.5 17 14.5C16.4 14.5 16 14.1 16 13.5C16 12.9 16.4 12.5 17 12.5ZM17 16.5C17.6 16.5 18 16.9 18 17.5C18 18.1 17.6 18.5 17 18.5C16.4 18.5 16 18.1 16 17.5C16 16.9 16.4 16.5 17 16.5ZM12 12.5C12.6 12.5 13 12.9 13 13.5C13 14.1 12.6 14.5 12 14.5C11.4 14.5 11 14.1 11 13.5C11 12.9 11.4 12.5 12 12.5ZM12 16.5C12.6 16.5 13 16.9 13 17.5C13 18.1 12.6 18.5 12 18.5C11.4 18.5 11 18.1 11 17.5C11 16.9 11.4 16.5 12 16.5ZM7 12.5C7.6 12.5 8 12.9 8 13.5C8 14.1 7.6 14.5 7 14.5C6.4 14.5 6 14.1 6 13.5C6 12.9 6.4 12.5 7 12.5ZM7 16.5C7.6 16.5 8 16.9 8 17.5C8 18.1 7.6 18.5 7 18.5C6.4 18.5 6 18.1 6 17.5C6 16.9 6.4 16.5 7 16.5Z" fill="white"/>
</g>
</svg>
