<svg width="33" height="33" viewBox="0 0 33 33" fill="none" xmlns="http://www.w3.org/2000/svg">
<g id="instagram" clip-path="url(#clip0_4_738)">
<path id="Vector" d="M21.5 9.5H11.5C10.9696 9.5 10.4609 9.71071 10.0858 10.0858C9.71071 10.4609 9.5 10.9696 9.5 11.5V21.5C9.5 22.0304 9.71071 22.5391 10.0858 22.9142C10.4609 23.2893 10.9696 23.5 11.5 23.5H21.5C22.0304 23.5 22.5391 23.2893 22.9142 22.9142C23.2893 22.5391 23.5 22.0304 23.5 21.5V11.5C23.5 10.9696 23.2893 10.4609 22.9142 10.0858C22.5391 9.71071 22.0304 9.5 21.5 9.5ZM16.5 20.5C15.7089 20.5 14.9355 20.2654 14.2777 19.8259C13.6199 19.3864 13.1072 18.7616 12.8045 18.0307C12.5017 17.2998 12.4225 16.4956 12.5769 15.7196C12.7312 14.9437 13.1122 14.231 13.6716 13.6716C14.231 13.1122 14.9437 12.7312 15.7196 12.5769C16.4956 12.4225 17.2998 12.5017 18.0307 12.8045C18.7616 13.1072 19.3864 13.6199 19.8259 14.2777C20.2654 14.9355 20.5 15.7089 20.5 16.5C20.5 17.5609 20.0786 18.5783 19.3284 19.3284C18.5783 20.0786 17.5609 20.5 16.5 20.5ZM21 13.25C20.7528 13.25 20.5111 13.1767 20.3055 13.0393C20.1 12.902 19.9398 12.7068 19.8451 12.4784C19.7505 12.2499 19.7258 11.9986 19.774 11.7561C19.8223 11.5137 19.9413 11.2909 20.1161 11.1161C20.2909 10.9413 20.5137 10.8222 20.7561 10.774C20.9986 10.7258 21.2499 10.7505 21.4784 10.8452C21.7068 10.9398 21.902 11.1 22.0393 11.3055C22.1767 11.5111 22.25 11.7528 22.25 12C22.25 12.3315 22.1183 12.6495 21.8839 12.8839C21.6495 13.1183 21.3315 13.25 21 13.25Z" fill="white"/>
<path id="Vector_2" d="M16.5 18.5C17.6046 18.5 18.5 17.6046 18.5 16.5C18.5 15.3954 17.6046 14.5 16.5 14.5C15.3954 14.5 14.5 15.3954 14.5 16.5C14.5 17.6046 15.3954 18.5 16.5 18.5Z" fill="white"/>
<path id="Vector_3" d="M26.5 0.5H6.5C4.91012 0.504617 3.38668 1.13824 2.26246 2.26246C1.13824 3.38668 0.504617 4.91012 0.5 6.5L0.5 26.5C0.504617 28.0899 1.13824 29.6133 2.26246 30.7375C3.38668 31.8618 4.91012 32.4954 6.5 32.5H26.5C28.0899 32.4954 29.6133 31.8618 30.7375 30.7375C31.8618 29.6133 32.4954 28.0899 32.5 26.5V6.5C32.4954 4.91012 31.8618 3.38668 30.7375 2.26246C29.6133 1.13824 28.0899 0.504617 26.5 0.5ZM25.5 21.5C25.5 22.5609 25.0786 23.5783 24.3284 24.3284C23.5783 25.0786 22.5609 25.5 21.5 25.5H11.5C10.4391 25.5 9.42172 25.0786 8.67157 24.3284C7.92143 23.5783 7.5 22.5609 7.5 21.5V11.5C7.5 10.4391 7.92143 9.42172 8.67157 8.67157C9.42172 7.92143 10.4391 7.5 11.5 7.5H21.5C22.5609 7.5 23.5783 7.92143 24.3284 8.67157C25.0786 9.42172 25.5 10.4391 25.5 11.5V21.5Z" fill="white"/>
</g>
<defs>
<clipPath id="clip0_4_738">
<rect width="32" height="32" fill="white" transform="translate(0.5 0.5)"/>
</clipPath>
</defs>
</svg>
