<svg width="48" height="48" viewBox="0 0 48 48" fill="none" xmlns="http://www.w3.org/2000/svg">
<g id="music">
<path id="Vector" d="M28.5 13.5H27.75C26.5094 13.5057 25.2999 13.1123 24.3 12.378C24.2069 12.3081 24.1314 12.2175 24.0793 12.1133C24.0273 12.0092 24.0001 11.8944 24 11.778V6.222C24 6.10557 24.0271 5.99073 24.0792 5.88659C24.1312 5.78245 24.2069 5.69186 24.3 5.622C25.2999 4.88769 26.5094 4.49433 27.75 4.5H28.5C30.981 4.5 33 6.519 33 9C33 9.19891 32.921 9.38968 32.7803 9.53033C32.6397 9.67098 32.4489 9.75 32.25 9.75C32.0511 9.75 31.8603 9.67098 31.7197 9.53033C31.579 9.38968 31.5 9.19891 31.5 9C31.5 7.3455 30.1545 6 28.5 6H27.75C26.9415 6 26.1555 6.219 25.5 6.6195V11.3805C26.1555 11.781 26.9415 12 27.75 12H28.5C28.707 12 28.908 11.9775 29.103 11.94C29.2981 11.9012 29.5007 11.9415 29.6661 12.0521C29.8315 12.1626 29.9462 12.3344 29.985 12.5295C30.0238 12.7246 29.9835 12.9272 29.8729 13.0926C29.7624 13.258 29.5906 13.3727 29.3955 13.4115C29.1006 13.4701 28.8007 13.4998 28.5 13.5Z" fill="#006400"/>
<path id="Vector_2" d="M32.25 19.5H29.25C29.0511 19.5 28.8603 19.421 28.7197 19.2803C28.579 19.1397 28.5 18.9489 28.5 18.75V11.25C28.5 11.0511 28.579 10.8603 28.7197 10.7197C28.8603 10.579 29.0511 10.5 29.25 10.5C29.4489 10.5 29.6397 10.579 29.7803 10.7197C29.921 10.8603 30 11.0511 30 11.25V18H31.5V9C31.5 8.80109 31.579 8.61032 31.7197 8.46967C31.8603 8.32902 32.0511 8.25 32.25 8.25C32.4489 8.25 32.6397 8.32902 32.7803 8.46967C32.921 8.61032 33 8.80109 33 9V18.75C33 18.9489 32.921 19.1397 32.7803 19.2803C32.6397 19.421 32.4489 19.5 32.25 19.5ZM41.25 13.5H40.5C40.1925 13.5 39.8925 13.4685 39.603 13.41C39.5064 13.3908 39.4145 13.3527 39.3326 13.298C39.2507 13.2433 39.1803 13.173 39.1256 13.0911C39.0708 13.0092 39.0328 12.9173 39.0135 12.8207C38.9943 12.7241 38.9943 12.6246 39.0135 12.528C39.0327 12.4314 39.0708 12.3395 39.1255 12.2576C39.1802 12.1757 39.2505 12.1053 39.3324 12.0506C39.4143 11.9958 39.5062 11.9578 39.6028 11.9385C39.6994 11.9193 39.7989 11.9193 39.8955 11.9385C40.092 11.9775 40.293 12 40.5 12H41.25C42.0585 12 42.8445 11.781 43.5 11.3805V6.6195C42.8208 6.21114 42.0425 5.99687 41.25 6H40.5C38.8455 6 37.5 7.3455 37.5 9C37.5 9.19891 37.421 9.38968 37.2803 9.53033C37.1397 9.67098 36.9489 9.75 36.75 9.75C36.5511 9.75 36.3603 9.67098 36.2197 9.53033C36.079 9.38968 36 9.19891 36 9C36 6.519 38.019 4.5 40.5 4.5H41.25C42.5085 4.5 43.734 4.899 44.7 5.622C44.889 5.7645 45 5.9865 45 6.222V11.7765C45 11.8929 44.9729 12.0078 44.9208 12.1119C44.8687 12.2161 44.7931 12.3066 44.7 12.3765C43.7006 13.1119 42.4908 13.5059 41.25 13.5Z" fill="#006400"/>
<path id="Vector_3" d="M39.75 19.5H36.75C36.5511 19.5 36.3603 19.421 36.2197 19.2803C36.079 19.1397 36 18.9489 36 18.75V9C36 8.80109 36.079 8.61032 36.2197 8.46967C36.3603 8.32902 36.5511 8.25 36.75 8.25C36.9489 8.25 37.1397 8.32902 37.2803 8.46967C37.421 8.61032 37.5 8.80109 37.5 9V18H39V11.25C39 11.0511 39.079 10.8603 39.2197 10.7197C39.3603 10.579 39.5511 10.5 39.75 10.5C39.9489 10.5 40.1397 10.579 40.2803 10.7197C40.421 10.8603 40.5 11.0511 40.5 11.25V18.75C40.5 18.9489 40.421 19.1397 40.2803 19.2803C40.1397 19.421 39.9489 19.5 39.75 19.5ZM18.75 37.5H6.75C5.7558 37.4988 4.80267 37.1033 4.09966 36.4003C3.39666 35.6973 3.00119 34.7442 3 33.75V6.75C3 4.6815 4.683 3 6.75 3H18.75C20.817 3 22.5 4.6815 22.5 6.75V33.75C22.5 35.8185 20.817 37.5 18.75 37.5ZM6.75 4.5C5.5095 4.5 4.5 5.5095 4.5 6.75V33.75C4.5 34.9905 5.5095 36 6.75 36H18.75C19.9905 36 21 34.9905 21 33.75V6.75C21 5.5095 19.9905 4.5 18.75 4.5H6.75Z" fill="#006400"/>
<path id="Vector_4" d="M12.75 34.5C13.5784 34.5 14.25 33.8284 14.25 33C14.25 32.1716 13.5784 31.5 12.75 31.5C11.9216 31.5 11.25 32.1716 11.25 33C11.25 33.8284 11.9216 34.5 12.75 34.5Z" fill="#006400"/>
<path id="Vector_5" d="M12.75 7.5H9.75C9.55109 7.5 9.36032 7.42098 9.21967 7.28033C9.07902 7.13968 9 6.94891 9 6.75C9 6.55109 9.07902 6.36032 9.21967 6.21967C9.36032 6.07902 9.55109 6 9.75 6H12.75C12.9489 6 13.1397 6.07902 13.2803 6.21967C13.421 6.36032 13.5 6.55109 13.5 6.75C13.5 6.94891 13.421 7.13968 13.2803 7.28033C13.1397 7.42098 12.9489 7.5 12.75 7.5ZM21.75 10.5H3.75C3.55109 10.5 3.36032 10.421 3.21967 10.2803C3.07902 10.1397 3 9.94891 3 9.75C3 9.55109 3.07902 9.36032 3.21967 9.21967C3.36032 9.07902 3.55109 9 3.75 9H21.75C21.9489 9 22.1397 9.07902 22.2803 9.21967C22.421 9.36032 22.5 9.55109 22.5 9.75C22.5 9.94891 22.421 10.1397 22.2803 10.2803C22.1397 10.421 21.9489 10.5 21.75 10.5ZM21.75 30H3.75C3.55109 30 3.36032 29.921 3.21967 29.7803C3.07902 29.6397 3 29.4489 3 29.25C3 29.0511 3.07902 28.8603 3.21967 28.7197C3.36032 28.579 3.55109 28.5 3.75 28.5H21.75C21.9489 28.5 22.1397 28.579 22.2803 28.7197C22.421 28.8603 22.5 29.0511 22.5 29.25C22.5 29.4489 22.421 29.6397 22.2803 29.7803C22.1397 29.921 21.9489 30 21.75 30ZM15.75 7.5C15.645 7.5 15.555 7.485 15.465 7.44C15.3718 7.40722 15.289 7.35028 15.225 7.275C15.1529 7.20803 15.0957 7.12672 15.0569 7.03631C15.0182 6.94589 14.9988 6.84836 15 6.75C15 6.645 15.015 6.555 15.06 6.465C15.09 6.375 15.15 6.285 15.225 6.225C15.3657 6.08864 15.554 6.01239 15.75 6.01239C15.946 6.01239 16.1343 6.08864 16.275 6.225C16.35 6.285 16.41 6.3765 16.44 6.465C16.485 6.555 16.5 6.645 16.5 6.75C16.5 6.945 16.425 7.14 16.275 7.275C16.215 7.35 16.125 7.41 16.035 7.44C15.945 7.485 15.855 7.5 15.75 7.5ZM34.5 37.5C34.3011 37.5 34.1103 37.421 33.9697 37.2803C33.829 37.1397 33.75 36.9489 33.75 36.75V29.25C33.75 29.0511 33.671 28.8603 33.5303 28.7197C33.3897 28.579 33.1989 28.5 33 28.5H32.25C31.0095 28.5 30 27.4905 30 26.25V18.75C30 18.5511 30.079 18.3603 30.2197 18.2197C30.3603 18.079 30.5511 18 30.75 18C30.9489 18 31.1397 18.079 31.2803 18.2197C31.421 18.3603 31.5 18.5511 31.5 18.75V26.25C31.5 26.4489 31.579 26.6397 31.7197 26.7803C31.8603 26.921 32.0511 27 32.25 27H33C34.2405 27 35.25 28.0095 35.25 29.25V36.75C35.25 36.9489 35.171 37.1397 35.0303 37.2803C34.8897 37.421 34.6989 37.5 34.5 37.5ZM9.75 40.5H6.75C6.55109 40.5 6.36032 40.421 6.21967 40.2803C6.07902 40.1397 6 39.9489 6 39.75V36.75C6 36.5511 6.07902 36.3603 6.21967 36.2197C6.36032 36.079 6.55109 36 6.75 36H9.75C9.94891 36 10.1397 36.079 10.2803 36.2197C10.421 36.3603 10.5 36.5511 10.5 36.75V39.75C10.5 39.9489 10.421 40.1397 10.2803 40.2803C10.1397 40.421 9.94891 40.5 9.75 40.5ZM7.5 39H9V37.5H7.5V39Z" fill="#006400"/>
<path id="Vector_6" d="M33 45H9.75C8.5095 45 7.5 43.9905 7.5 42.75V39.75C7.5 39.5511 7.57902 39.3603 7.71967 39.2197C7.86032 39.079 8.05109 39 8.25 39C8.44891 39 8.63968 39.079 8.78033 39.2197C8.92098 39.3603 9 39.5511 9 39.75V42.75C9 42.9489 9.07902 43.1397 9.21967 43.2803C9.36032 43.421 9.55109 43.5 9.75 43.5H33C33.1989 43.5 33.3897 43.421 33.5303 43.2803C33.671 43.1397 33.75 42.9489 33.75 42.75V29.25C33.75 28.0095 34.7595 27 36 27H36.75C36.9489 27 37.1397 26.921 37.2803 26.7803C37.421 26.6397 37.5 26.4489 37.5 26.25V18.75C37.5 18.5511 37.579 18.3603 37.7197 18.2197C37.8603 18.079 38.0511 18 38.25 18C38.4489 18 38.6397 18.079 38.7803 18.2197C38.921 18.3603 39 18.5511 39 18.75V26.25C39 27.4905 37.9905 28.5 36.75 28.5H36C35.8011 28.5 35.6103 28.579 35.4697 28.7197C35.329 28.8603 35.25 29.0511 35.25 29.25V42.75C35.25 43.9905 34.2405 45 33 45ZM11.25 23.25C11.0511 23.25 10.8603 23.171 10.7197 23.0303C10.579 22.8897 10.5 22.6989 10.5 22.5V16.5C10.5 16.3607 10.5388 16.2242 10.612 16.1057C10.6852 15.9872 10.79 15.8915 10.9146 15.8292C11.0392 15.7669 11.1786 15.7405 11.3174 15.753C11.4561 15.7655 11.5886 15.8164 11.7 15.9L15.7005 18.9C15.7934 18.97 15.8687 19.0607 15.9206 19.1648C15.9725 19.2689 15.9995 19.3837 15.9995 19.5C15.9995 19.6163 15.9725 19.7311 15.9206 19.8352C15.8687 19.9393 15.7934 20.03 15.7005 20.1L11.7 23.1C11.5702 23.1974 11.4123 23.25 11.25 23.25ZM12 18V21L13.9995 19.5L12 18Z" fill="#006400"/>
</g>
</svg>
