<svg width="48" height="48" viewBox="0 0 48 48" fill="none" xmlns="http://www.w3.org/2000/svg">
<g id="music-file">
<path id="Vector" d="M41.988 9.938C41.9822 9.84975 41.9647 9.76265 41.936 9.679C41.925 9.647 41.917 9.617 41.903 9.586C41.8543 9.47719 41.7866 9.37797 41.703 9.293L32.703 0.293C32.6182 0.208787 32.5185 0.140981 32.409 0.093C32.3796 0.0803619 32.3496 0.0693453 32.319 0.06C32.2338 0.0307208 32.145 0.0132256 32.055 0.008C32.039 0.01 32.02 0 32 0H9C8.20435 0 7.44129 0.31607 6.87868 0.87868C6.31607 1.44129 6 2.20435 6 3V45C6 45.7957 6.31607 46.5587 6.87868 47.1213C7.44129 47.6839 8.20435 48 9 48H39C39.7957 48 40.5587 47.6839 41.1213 47.1213C41.6839 46.5587 42 45.7957 42 45V10C42 9.979 41.989 9.96 41.988 9.938ZM38.586 9H34C33.7348 9 33.4804 8.89464 33.2929 8.70711C33.1054 8.51957 33 8.26522 33 8V3.414L38.586 9ZM39 46H9C8.73478 46 8.48043 45.8946 8.29289 45.7071C8.10536 45.5196 8 45.2652 8 45V3C8 2.73478 8.10536 2.48043 8.29289 2.29289C8.48043 2.10536 8.73478 2 9 2H31V8C31 8.79565 31.3161 9.55871 31.8787 10.1213C32.4413 10.6839 33.2044 11 34 11H40V45C40 45.2652 39.8946 45.5196 39.7071 45.7071C39.5196 45.8946 39.2652 46 39 46Z" fill="#006400"/>
<path id="Vector_2" d="M33.79 16.022L19.79 19.022C19.5663 19.07 19.3659 19.1933 19.2221 19.3713C19.0783 19.5493 18.9999 19.7712 19 20V32.556C18.3947 32.1961 17.7043 32.0041 17 32C16.2089 32 15.4355 32.2346 14.7777 32.6741C14.1199 33.1136 13.6072 33.7384 13.3045 34.4693C13.0017 35.2002 12.9225 36.0044 13.0769 36.7804C13.2312 37.5563 13.6122 38.269 14.1716 38.8284C14.731 39.3878 15.4437 39.7688 16.2196 39.9231C16.9956 40.0775 17.7998 39.9983 18.5307 39.6955C19.2616 39.3928 19.8864 38.8801 20.3259 38.2223C20.7654 37.5645 21 36.7911 21 36V25.808L33 23.237V29.556C32.3947 29.1961 31.7043 29.0041 31 29C30.2089 29 29.4355 29.2346 28.7777 29.6741C28.1199 30.1136 27.6072 30.7384 27.3045 31.4693C27.0017 32.2002 26.9225 33.0044 27.0769 33.7804C27.2312 34.5563 27.6122 35.269 28.1716 35.8284C28.731 36.3878 29.4437 36.7688 30.2196 36.9231C30.9956 37.0775 31.7998 36.9983 32.5307 36.6955C33.2616 36.3928 33.8864 35.8801 34.3259 35.2223C34.7654 34.5645 35 33.7911 35 33V17C34.9999 16.851 34.9666 16.704 34.9024 16.5695C34.8382 16.4351 34.7448 16.3167 34.629 16.223C34.5135 16.1282 34.3779 16.0609 34.2326 16.0261C34.0873 15.9913 33.9359 15.9899 33.79 16.022ZM17 38C16.6044 38 16.2178 37.8827 15.8889 37.6629C15.56 37.4432 15.3036 37.1308 15.1522 36.7654C15.0009 36.3999 14.9613 35.9978 15.0384 35.6098C15.1156 35.2219 15.3061 34.8655 15.5858 34.5858C15.8655 34.3061 16.2219 34.1156 16.6098 34.0384C16.9978 33.9613 17.3999 34.0009 17.7654 34.1522C18.1308 34.3036 18.4432 34.56 18.6629 34.8889C18.8827 35.2178 19 35.6044 19 36C19 36.5304 18.7893 37.0391 18.4142 37.4142C18.0391 37.7893 17.5304 38 17 38ZM21 23.763V20.809L33 18.237V21.192L21 23.763ZM31 35C30.6044 35 30.2178 34.8827 29.8889 34.6629C29.56 34.4432 29.3036 34.1308 29.1522 33.7654C29.0009 33.3999 28.9613 32.9978 29.0384 32.6098C29.1156 32.2219 29.3061 31.8655 29.5858 31.5858C29.8655 31.3061 30.2219 31.1156 30.6098 31.0384C30.9978 30.9613 31.3999 31.0009 31.7654 31.1522C32.1308 31.3036 32.4432 31.56 32.6629 31.8889C32.8827 32.2178 33 32.6044 33 33C33 33.5304 32.7893 34.0391 32.4142 34.4142C32.0391 34.7893 31.5304 35 31 35ZM12 6H14V8H12V6ZM16 6H20V8H16V6ZM12 10H20V12H12V10Z" fill="#006400"/>
</g>
</svg>
