<svg width="48" height="48" viewBox="0 0 48 48" fill="none" xmlns="http://www.w3.org/2000/svg">
<g id="music-mixing">
<path id="Vector" d="M45.75 37.1257H2.25C1.0095 37.1257 0 36.1162 0 34.8757V10.125C0 8.8845 1.0095 7.875 2.25 7.875H45.75C46.9905 7.875 48 8.8845 48 10.125V34.8757C48 36.1162 46.9905 37.1257 45.75 37.1257ZM2.25 9.375C1.836 9.375 1.5 9.711 1.5 10.125V34.8757C1.5 35.2897 1.836 35.6257 2.25 35.6257H45.75C46.164 35.6257 46.5 35.2897 46.5 34.8757V10.125C46.5 9.711 46.164 9.375 45.75 9.375H2.25Z" fill="#006400"/>
<path id="Vector_2" d="M45.75 40.125H2.25C1.0095 40.125 0 39.1155 0 37.875V13.1243C0 12.7095 0.33525 12.3743 0.75 12.3743C1.16475 12.3743 1.5 12.7095 1.5 13.1243V37.875C1.5 38.289 1.836 38.625 2.25 38.625H45.75C46.164 38.625 46.5 38.289 46.5 37.875V13.1243C46.5 12.7095 46.8353 12.3743 47.25 12.3743C47.6647 12.3743 48 12.7095 48 13.1243V37.875C48 39.1155 46.9905 40.125 45.75 40.125Z" fill="#006400"/>
<path id="Vector_3" d="M5.25076 28.8787C4.83601 28.8787 4.50076 28.5435 4.50076 28.1287V17.6257C4.50076 17.211 4.83601 16.8757 5.25076 16.8757C5.66551 16.8757 6.00076 17.211 6.00076 17.6257V28.1287C6.00076 28.5435 5.66551 28.8787 5.25076 28.8787Z" fill="#006400"/>
<path id="Vector_4" d="M6.75076 31.8787H3.75076C3.33601 31.8787 3.00076 31.5435 3.00076 31.1287V28.1287C3.00076 27.714 3.33601 27.3787 3.75076 27.3787H6.75076C7.16551 27.3787 7.50076 27.714 7.50076 28.1287V31.1287C7.50076 31.5435 7.16551 31.8787 6.75076 31.8787ZM4.50076 30.3787H6.00076V28.8787H4.50076V30.3787Z" fill="#006400"/>
<path id="Vector_5" d="M5.25076 34.1257C4.83601 34.1257 4.50076 33.7905 4.50076 33.3757V31.1287C4.50076 30.714 4.83601 30.3787 5.25076 30.3787C5.66551 30.3787 6.00076 30.714 6.00076 31.1287V33.3757C6.00076 33.7905 5.66551 34.1257 5.25076 34.1257ZM10.4993 22.122C10.0845 22.122 9.74926 21.7867 9.74926 21.372V17.6257C9.74926 17.211 10.0845 16.8757 10.4993 16.8757C10.914 16.8757 11.2493 17.211 11.2493 17.6257V21.372C11.2493 21.7867 10.914 22.122 10.4993 22.122Z" fill="#006400"/>
<path id="Vector_6" d="M11.9992 25.122H8.99924C8.58449 25.122 8.24924 24.7868 8.24924 24.372V21.372C8.24924 20.9573 8.58449 20.622 8.99924 20.622H11.9992C12.414 20.622 12.7492 20.9573 12.7492 21.372V24.372C12.7492 24.7868 12.414 25.122 11.9992 25.122ZM9.74924 23.622H11.2492V22.122H9.74924V23.622Z" fill="#006400"/>
<path id="Vector_7" d="M10.4992 34.1257C10.0845 34.1257 9.74924 33.7905 9.74924 33.3757V24.372C9.74924 23.9572 10.0845 23.622 10.4992 23.622C10.914 23.622 11.2492 23.9572 11.2492 24.372V33.3757C11.2492 33.7905 10.914 34.1257 10.4992 34.1257ZM15.7477 26.6265C15.333 26.6265 14.9977 26.2912 14.9977 25.8765V17.6257C14.9977 17.211 15.333 16.8757 15.7477 16.8757C16.1625 16.8757 16.4977 17.211 16.4977 17.6257V25.8765C16.4977 26.2912 16.1625 26.6265 15.7477 26.6265Z" fill="#006400"/>
<path id="Vector_8" d="M17.2477 29.6265H14.2477C13.833 29.6265 13.4977 29.2913 13.4977 28.8765V25.8765C13.4977 25.4618 13.833 25.1265 14.2477 25.1265H17.2477C17.6625 25.1265 17.9977 25.4618 17.9977 25.8765V28.8765C17.9977 29.2913 17.6625 29.6265 17.2477 29.6265ZM14.9977 28.1265H16.4977V26.6265H14.9977V28.1265Z" fill="#006400"/>
<path id="Vector_9" d="M15.7477 34.1257C15.333 34.1257 14.9977 33.7905 14.9977 33.3757V28.8765C14.9977 28.4617 15.333 28.1265 15.7477 28.1265C16.1625 28.1265 16.4977 28.4617 16.4977 28.8765V33.3757C16.4977 33.7905 16.1625 34.1257 15.7477 34.1257ZM20.9962 20.6205C20.5815 20.6205 20.2462 20.2852 20.2462 19.8705V17.6257C20.2462 17.211 20.5815 16.8757 20.9962 16.8757C21.411 16.8757 21.7462 17.211 21.7462 17.6257V19.8705C21.7462 20.2852 21.411 20.6205 20.9962 20.6205Z" fill="#006400"/>
<path id="Vector_10" d="M22.4962 23.6205H19.4962C19.0815 23.6205 18.7462 23.2852 18.7462 22.8705V19.8705C18.7462 19.4557 19.0815 19.1205 19.4962 19.1205H22.4962C22.911 19.1205 23.2462 19.4557 23.2462 19.8705V22.8705C23.2462 23.2852 22.911 23.6205 22.4962 23.6205ZM20.2462 22.1205H21.7462V20.6205H20.2462V22.1205Z" fill="#006400"/>
<path id="Vector_11" d="M20.9962 34.1257C20.5815 34.1257 20.2462 33.7905 20.2462 33.3757V22.8705C20.2462 22.4557 20.5815 22.1205 20.9962 22.1205C21.411 22.1205 21.7462 22.4557 21.7462 22.8705V33.3757C21.7462 33.7905 21.411 34.1257 20.9962 34.1257ZM26.2447 28.128C25.83 28.128 25.4947 27.7927 25.4947 27.378V17.6257C25.4947 17.211 25.83 16.8757 26.2447 16.8757C26.6595 16.8757 26.9947 17.211 26.9947 17.6257V27.378C26.9947 27.7927 26.6595 28.128 26.2447 28.128Z" fill="#006400"/>
<path id="Vector_12" d="M27.7448 31.128H24.7448C24.33 31.128 23.9948 30.7927 23.9948 30.378V27.378C23.9948 26.9632 24.33 26.628 24.7448 26.628H27.7448C28.1595 26.628 28.4948 26.9632 28.4948 27.378V30.378C28.4948 30.7927 28.1595 31.128 27.7448 31.128ZM25.4948 29.628H26.9948V28.128H25.4948V29.628Z" fill="#006400"/>
<path id="Vector_13" d="M26.2448 34.1257C25.83 34.1257 25.4948 33.7905 25.4948 33.3757V30.378C25.4948 29.9632 25.83 29.628 26.2448 29.628C26.6595 29.628 26.9948 29.9632 26.9948 30.378V33.3757C26.9948 33.7905 26.6595 34.1257 26.2448 34.1257ZM31.4933 21.3712C31.0785 21.3712 30.7433 21.036 30.7433 20.6212V17.6257C30.7433 17.211 31.0785 16.8757 31.4933 16.8757C31.908 16.8757 32.2433 17.211 32.2433 17.6257V20.6212C32.2433 21.036 31.908 21.3712 31.4933 21.3712Z" fill="#006400"/>
<path id="Vector_14" d="M32.9933 24.3713H29.9933C29.5785 24.3713 29.2433 24.036 29.2433 23.6213V20.6213C29.2433 20.2065 29.5785 19.8713 29.9933 19.8713H32.9933C33.408 19.8713 33.7433 20.2065 33.7433 20.6213V23.6213C33.7433 24.036 33.408 24.3713 32.9933 24.3713ZM30.7433 22.8713H32.2433V21.3713H30.7433V22.8713Z" fill="#006400"/>
<path id="Vector_15" d="M31.4933 34.1257C31.0785 34.1257 30.7433 33.7905 30.7433 33.3757V23.6212C30.7433 23.2065 31.0785 22.8712 31.4933 22.8712C31.908 22.8712 32.2433 23.2065 32.2433 23.6212V33.3757C32.2433 33.7905 31.908 34.1257 31.4933 34.1257ZM36.7418 25.8757C36.327 25.8757 35.9918 25.5405 35.9918 25.1257V17.6257C35.9918 17.211 36.327 16.8757 36.7418 16.8757C37.1565 16.8757 37.4918 17.211 37.4918 17.6257V25.1257C37.4918 25.5405 37.1565 25.8757 36.7418 25.8757Z" fill="#006400"/>
<path id="Vector_16" d="M38.2418 28.8757H35.2418C34.827 28.8757 34.4918 28.5405 34.4918 28.1257V25.1257C34.4918 24.711 34.827 24.3757 35.2418 24.3757H38.2418C38.6565 24.3757 38.9918 24.711 38.9918 25.1257V28.1257C38.9918 28.5405 38.6565 28.8757 38.2418 28.8757ZM35.9918 27.3757H37.4918V25.8757H35.9918V27.3757Z" fill="#006400"/>
<path id="Vector_17" d="M36.7417 34.1257C36.327 34.1257 35.9917 33.7905 35.9917 33.3757V28.1257C35.9917 27.711 36.327 27.3757 36.7417 27.3757C37.1565 27.3757 37.4917 27.711 37.4917 28.1257V33.3757C37.4917 33.7905 37.1565 34.1257 36.7417 34.1257ZM44.2493 22.1257H40.4993C40.0845 22.1257 39.7493 21.7905 39.7493 21.3757V17.6257C39.7493 17.211 40.0845 16.8757 40.4993 16.8757H44.2493C44.664 16.8757 44.9993 17.211 44.9993 17.6257V21.3757C44.9993 21.7905 44.664 22.1257 44.2493 22.1257ZM41.2493 20.6257H43.4993V18.3757H41.2493V20.6257ZM41.2725 27.3787C40.8577 27.3787 40.5188 27.0435 40.5188 26.6287C40.5188 26.214 40.8503 25.8787 41.2643 25.8787H41.2725C41.6865 25.8787 42.0225 26.214 42.0225 26.6287C42.0225 27.0435 41.6865 27.3787 41.2725 27.3787ZM43.5225 27.3787C43.1077 27.3787 42.7688 27.0435 42.7688 26.6287C42.7688 26.214 43.1003 25.8787 43.5143 25.8787H43.5225C43.9365 25.8787 44.2725 26.214 44.2725 26.6287C44.2725 27.0435 43.9365 27.3787 43.5225 27.3787ZM41.2725 25.1265C40.8577 25.1265 40.5188 24.7912 40.5188 24.3765C40.5188 23.9617 40.8503 23.6265 41.2643 23.6265H41.2725C41.6865 23.6265 42.0225 23.9617 42.0225 24.3765C42.0225 24.7912 41.6865 25.1265 41.2725 25.1265ZM43.5225 25.1265C43.1077 25.1265 42.7688 24.7912 42.7688 24.3765C42.7688 23.9617 43.1003 23.6265 43.5143 23.6265H43.5225C43.9365 23.6265 44.2725 23.9617 44.2725 24.3765C44.2725 24.7912 43.9365 25.1265 43.5225 25.1265ZM41.2725 29.628C40.8577 29.628 40.5188 29.2927 40.5188 28.878C40.5188 28.4632 40.8503 28.128 41.2643 28.128H41.2725C41.6865 28.128 42.0225 28.4632 42.0225 28.878C42.0225 29.2927 41.6865 29.628 41.2725 29.628ZM43.5225 29.628C43.1077 29.628 42.7688 29.2927 42.7688 28.878C42.7688 28.4632 43.1003 28.128 43.5143 28.128H43.5225C43.9365 28.128 44.2725 28.4632 44.2725 28.878C44.2725 29.2927 43.9365 29.628 43.5225 29.628ZM41.2725 31.8772C40.8577 31.8772 40.5188 31.542 40.5188 31.1272C40.5188 30.7125 40.8503 30.3772 41.2643 30.3772H41.2725C41.6865 30.3772 42.0225 30.7125 42.0225 31.1272C42.0225 31.542 41.6865 31.8772 41.2725 31.8772ZM43.5225 31.8772C43.1077 31.8772 42.7688 31.542 42.7688 31.1272C42.7688 30.7125 43.1003 30.3772 43.5143 30.3772H43.5225C43.9365 30.3772 44.2725 30.7125 44.2725 31.1272C44.2725 31.542 43.9365 31.8772 43.5225 31.8772ZM41.2725 34.1265C40.8577 34.1265 40.5188 33.7912 40.5188 33.3765C40.5188 32.9617 40.8503 32.6265 41.2643 32.6265H41.2725C41.6865 32.6265 42.0225 32.9617 42.0225 33.3765C42.0225 33.7912 41.6865 34.1265 41.2725 34.1265ZM43.5225 34.1265C43.1077 34.1265 42.7688 33.7912 42.7688 33.3765C42.7688 32.9617 43.1003 32.6265 43.5143 32.6265H43.5225C43.9365 32.6265 44.2725 32.9617 44.2725 33.3765C44.2725 33.7912 43.9365 34.1265 43.5225 34.1265ZM5.25 15.3757C4.0095 15.3757 3 14.3662 3 13.1257C3 11.8852 4.0095 10.8757 5.25 10.8757C6.4905 10.8757 7.5 11.8852 7.5 13.1257C7.5 14.3662 6.4905 15.3757 5.25 15.3757ZM5.25 12.3757C4.836 12.3757 4.5 12.7117 4.5 13.1257C4.5 13.5397 4.836 13.8757 5.25 13.8757C5.664 13.8757 6 13.5397 6 13.1257C6 12.7117 5.664 12.3757 5.25 12.3757ZM11.25 15.3757C10.0095 15.3757 9 14.3662 9 13.1257C9 11.8852 10.0095 10.8757 11.25 10.8757C12.4905 10.8757 13.5 11.8852 13.5 13.1257C13.5 14.3662 12.4905 15.3757 11.25 15.3757ZM11.25 12.3757C10.836 12.3757 10.5 12.7117 10.5 13.1257C10.5 13.5397 10.836 13.8757 11.25 13.8757C11.664 13.8757 12 13.5397 12 13.1257C12 12.7117 11.664 12.3757 11.25 12.3757ZM17.25 15.3757C16.0095 15.3757 15 14.3662 15 13.1257C15 11.8852 16.0095 10.8757 17.25 10.8757C18.4905 10.8757 19.5 11.8852 19.5 13.1257C19.5 14.3662 18.4905 15.3757 17.25 15.3757ZM17.25 12.3757C16.836 12.3757 16.5 12.7117 16.5 13.1257C16.5 13.5397 16.836 13.8757 17.25 13.8757C17.664 13.8757 18 13.5397 18 13.1257C18 12.7117 17.664 12.3757 17.25 12.3757ZM30.7515 15.3757C29.511 15.3757 28.5015 14.3662 28.5015 13.1257C28.5015 11.8852 29.511 10.8757 30.7515 10.8757C31.992 10.8757 33.0015 11.8852 33.0015 13.1257C33.0015 14.3662 31.992 15.3757 30.7515 15.3757ZM30.7515 12.3757C30.3375 12.3757 30.0015 12.7117 30.0015 13.1257C30.0015 13.5397 30.3375 13.8757 30.7515 13.8757C31.1655 13.8757 31.5015 13.5397 31.5015 13.1257C31.5015 12.7117 31.1655 12.3757 30.7515 12.3757ZM36.7515 15.3757C35.511 15.3757 34.5015 14.3662 34.5015 13.1257C34.5015 11.8852 35.511 10.8757 36.7515 10.8757C37.992 10.8757 39.0015 11.8852 39.0015 13.1257C39.0015 14.3662 37.992 15.3757 36.7515 15.3757ZM36.7515 12.3757C36.3375 12.3757 36.0015 12.7117 36.0015 13.1257C36.0015 13.5397 36.3375 13.8757 36.7515 13.8757C37.1655 13.8757 37.5015 13.5397 37.5015 13.1257C37.5015 12.7117 37.1655 12.3757 36.7515 12.3757ZM42.7515 15.3757C41.511 15.3757 40.5015 14.3662 40.5015 13.1257C40.5015 11.8852 41.511 10.8757 42.7515 10.8757C43.992 10.8757 45.0015 11.8852 45.0015 13.1257C45.0015 14.3662 43.992 15.3757 42.7515 15.3757ZM42.7515 12.3757C42.3375 12.3757 42.0015 12.7117 42.0015 13.1257C42.0015 13.5397 42.3375 13.8757 42.7515 13.8757C43.1655 13.8757 43.5015 13.5397 43.5015 13.1257C43.5015 12.7117 43.1655 12.3757 42.7515 12.3757ZM26.25 15.3757H21.747C21.3323 15.3757 20.997 15.0405 20.997 14.6257V11.6257C20.997 11.211 21.3323 10.8757 21.747 10.8757H26.25C26.6647 10.8757 27 11.211 27 11.6257V14.6257C27 15.0405 26.6647 15.3757 26.25 15.3757ZM22.497 13.8757H25.5V12.3757H22.497V13.8757Z" fill="#006400"/>
</g>
</svg>
