<svg width="49" height="48" viewBox="0 0 49 48" fill="none" xmlns="http://www.w3.org/2000/svg">
<g id="music-file">
<path id="Vector" d="M42.488 9.938C42.4822 9.84975 42.4647 9.76265 42.436 9.679C42.425 9.647 42.417 9.617 42.403 9.586C42.3543 9.47719 42.2866 9.37797 42.203 9.293L33.203 0.293C33.1182 0.208787 33.0185 0.140981 32.909 0.093C32.8796 0.0803619 32.8496 0.0693453 32.819 0.06C32.7338 0.0307208 32.645 0.0132256 32.555 0.008C32.539 0.01 32.52 0 32.5 0H9.5C8.70435 0 7.94129 0.31607 7.37868 0.87868C6.81607 1.44129 6.5 2.20435 6.5 3V45C6.5 45.7957 6.81607 46.5587 7.37868 47.1213C7.94129 47.6839 8.70435 48 9.5 48H39.5C40.2957 48 41.0587 47.6839 41.6213 47.1213C42.1839 46.5587 42.5 45.7957 42.5 45V10C42.5 9.979 42.489 9.96 42.488 9.938ZM39.086 9H34.5C34.2348 9 33.9804 8.89464 33.7929 8.70711C33.6054 8.51957 33.5 8.26522 33.5 8V3.414L39.086 9ZM39.5 46H9.5C9.23478 46 8.98043 45.8946 8.79289 45.7071C8.60536 45.5196 8.5 45.2652 8.5 45V3C8.5 2.73478 8.60536 2.48043 8.79289 2.29289C8.98043 2.10536 9.23478 2 9.5 2H31.5V8C31.5 8.79565 31.8161 9.55871 32.3787 10.1213C32.9413 10.6839 33.7044 11 34.5 11H40.5V45C40.5 45.2652 40.3946 45.5196 40.2071 45.7071C40.0196 45.8946 39.7652 46 39.5 46Z" fill="white"/>
<path id="Vector_2" d="M34.29 16.022L20.29 19.022C20.0663 19.07 19.8659 19.1933 19.7221 19.3713C19.5783 19.5493 19.4999 19.7712 19.5 20V32.556C18.8947 32.1961 18.2043 32.0041 17.5 32C16.7089 32 15.9355 32.2346 15.2777 32.6741C14.6199 33.1136 14.1072 33.7384 13.8045 34.4693C13.5017 35.2002 13.4225 36.0044 13.5769 36.7804C13.7312 37.5563 14.1122 38.269 14.6716 38.8284C15.231 39.3878 15.9437 39.7688 16.7196 39.9231C17.4956 40.0775 18.2998 39.9983 19.0307 39.6955C19.7616 39.3928 20.3864 38.8801 20.8259 38.2223C21.2654 37.5645 21.5 36.7911 21.5 36V25.808L33.5 23.237V29.556C32.8947 29.1961 32.2043 29.0041 31.5 29C30.7089 29 29.9355 29.2346 29.2777 29.6741C28.6199 30.1136 28.1072 30.7384 27.8045 31.4693C27.5017 32.2002 27.4225 33.0044 27.5769 33.7804C27.7312 34.5563 28.1122 35.269 28.6716 35.8284C29.231 36.3878 29.9437 36.7688 30.7196 36.9231C31.4956 37.0775 32.2998 36.9983 33.0307 36.6955C33.7616 36.3928 34.3864 35.8801 34.8259 35.2223C35.2654 34.5645 35.5 33.7911 35.5 33V17C35.4999 16.851 35.4666 16.704 35.4024 16.5695C35.3382 16.4351 35.2448 16.3167 35.129 16.223C35.0135 16.1282 34.8779 16.0609 34.7326 16.0261C34.5873 15.9913 34.4359 15.9899 34.29 16.022ZM17.5 38C17.1044 38 16.7178 37.8827 16.3889 37.6629C16.06 37.4432 15.8036 37.1308 15.6522 36.7654C15.5009 36.3999 15.4613 35.9978 15.5384 35.6098C15.6156 35.2219 15.8061 34.8655 16.0858 34.5858C16.3655 34.3061 16.7219 34.1156 17.1098 34.0384C17.4978 33.9613 17.8999 34.0009 18.2654 34.1522C18.6308 34.3036 18.9432 34.56 19.1629 34.8889C19.3827 35.2178 19.5 35.6044 19.5 36C19.5 36.5304 19.2893 37.0391 18.9142 37.4142C18.5391 37.7893 18.0304 38 17.5 38ZM21.5 23.763V20.809L33.5 18.237V21.192L21.5 23.763ZM31.5 35C31.1044 35 30.7178 34.8827 30.3889 34.6629C30.06 34.4432 29.8036 34.1308 29.6522 33.7654C29.5009 33.3999 29.4613 32.9978 29.5384 32.6098C29.6156 32.2219 29.8061 31.8655 30.0858 31.5858C30.3655 31.3061 30.7219 31.1156 31.1098 31.0384C31.4978 30.9613 31.8999 31.0009 32.2654 31.1522C32.6308 31.3036 32.9432 31.56 33.1629 31.8889C33.3827 32.2178 33.5 32.6044 33.5 33C33.5 33.5304 33.2893 34.0391 32.9142 34.4142C32.5391 34.7893 32.0304 35 31.5 35ZM12.5 6H14.5V8H12.5V6ZM16.5 6H20.5V8H16.5V6ZM12.5 10H20.5V12H12.5V10Z" fill="white"/>
</g>
</svg>
