<svg width="49" height="48" viewBox="0 0 49 48" fill="none" xmlns="http://www.w3.org/2000/svg">
<g id="music">
<path id="Vector" d="M29 13.5001H28.25C27.0094 13.5057 25.7999 13.1124 24.8 12.3781C24.7069 12.3081 24.6314 12.2175 24.5793 12.1134C24.5273 12.0093 24.5001 11.8945 24.5 11.7781V6.22206C24.5 6.10563 24.5271 5.99079 24.5792 5.88665C24.6312 5.78251 24.7069 5.69192 24.8 5.62206C25.7999 4.88775 27.0094 4.4944 28.25 4.50006H29C31.481 4.50006 33.5 6.51906 33.5 9.00006C33.5 9.19897 33.421 9.38974 33.2803 9.53039C33.1397 9.67104 32.9489 9.75006 32.75 9.75006C32.5511 9.75006 32.3603 9.67104 32.2197 9.53039C32.079 9.38974 32 9.19897 32 9.00006C32 7.34556 30.6545 6.00006 29 6.00006H28.25C27.4415 6.00006 26.6555 6.21906 26 6.61956V11.3806C26.6555 11.7811 27.4415 12.0001 28.25 12.0001H29C29.207 12.0001 29.408 11.9776 29.603 11.9401C29.7981 11.9013 30.0007 11.9416 30.1661 12.0521C30.3315 12.1627 30.4462 12.3344 30.485 12.5296C30.5238 12.7247 30.4835 12.9272 30.3729 13.0926C30.2624 13.2581 30.0906 13.3728 29.8955 13.4116C29.6006 13.4702 29.3007 13.4998 29 13.5001Z" fill="white"/>
<path id="Vector_2" d="M32.75 19.5H29.75C29.5511 19.5 29.3603 19.421 29.2197 19.2803C29.079 19.1397 29 18.9489 29 18.75V11.25C29 11.0511 29.079 10.8603 29.2197 10.7197C29.3603 10.579 29.5511 10.5 29.75 10.5C29.9489 10.5 30.1397 10.579 30.2803 10.7197C30.421 10.8603 30.5 11.0511 30.5 11.25V18H32V9C32 8.80109 32.079 8.61032 32.2197 8.46967C32.3603 8.32902 32.5511 8.25 32.75 8.25C32.9489 8.25 33.1397 8.32902 33.2803 8.46967C33.421 8.61032 33.5 8.80109 33.5 9V18.75C33.5 18.9489 33.421 19.1397 33.2803 19.2803C33.1397 19.421 32.9489 19.5 32.75 19.5ZM41.75 13.5H41C40.6925 13.5 40.3925 13.4685 40.103 13.41C40.0064 13.3908 39.9145 13.3527 39.8326 13.298C39.7507 13.2433 39.6803 13.173 39.6256 13.0911C39.5708 13.0092 39.5328 12.9173 39.5135 12.8207C39.4943 12.7241 39.4943 12.6246 39.5135 12.528C39.5327 12.4314 39.5708 12.3395 39.6255 12.2576C39.6802 12.1757 39.7505 12.1053 39.8324 12.0506C39.9143 11.9958 40.0062 11.9578 40.1028 11.9385C40.1994 11.9193 40.2989 11.9193 40.3955 11.9385C40.592 11.9775 40.793 12 41 12H41.75C42.5585 12 43.3445 11.781 44 11.3805V6.6195C43.3208 6.21114 42.5425 5.99687 41.75 6H41C39.3455 6 38 7.3455 38 9C38 9.19891 37.921 9.38968 37.7803 9.53033C37.6397 9.67098 37.4489 9.75 37.25 9.75C37.0511 9.75 36.8603 9.67098 36.7197 9.53033C36.579 9.38968 36.5 9.19891 36.5 9C36.5 6.519 38.519 4.5 41 4.5H41.75C43.0085 4.5 44.234 4.899 45.2 5.622C45.389 5.7645 45.5 5.9865 45.5 6.222V11.7765C45.5 11.8929 45.4729 12.0078 45.4208 12.1119C45.3687 12.2161 45.2931 12.3066 45.2 12.3765C44.2006 13.1119 42.9908 13.5059 41.75 13.5Z" fill="white"/>
<path id="Vector_3" d="M40.25 19.5H37.25C37.0511 19.5 36.8603 19.421 36.7197 19.2803C36.579 19.1397 36.5 18.9489 36.5 18.75V9C36.5 8.80109 36.579 8.61032 36.7197 8.46967C36.8603 8.32902 37.0511 8.25 37.25 8.25C37.4489 8.25 37.6397 8.32902 37.7803 8.46967C37.921 8.61032 38 8.80109 38 9V18H39.5V11.25C39.5 11.0511 39.579 10.8603 39.7197 10.7197C39.8603 10.579 40.0511 10.5 40.25 10.5C40.4489 10.5 40.6397 10.579 40.7803 10.7197C40.921 10.8603 41 11.0511 41 11.25V18.75C41 18.9489 40.921 19.1397 40.7803 19.2803C40.6397 19.421 40.4489 19.5 40.25 19.5ZM19.25 37.5H7.25C6.2558 37.4988 5.30267 37.1033 4.59966 36.4003C3.89666 35.6973 3.50119 34.7442 3.5 33.75V6.75C3.5 4.6815 5.183 3 7.25 3H19.25C21.317 3 23 4.6815 23 6.75V33.75C23 35.8185 21.317 37.5 19.25 37.5ZM7.25 4.5C6.0095 4.5 5 5.5095 5 6.75V33.75C5 34.9905 6.0095 36 7.25 36H19.25C20.4905 36 21.5 34.9905 21.5 33.75V6.75C21.5 5.5095 20.4905 4.5 19.25 4.5H7.25Z" fill="white"/>
<path id="Vector_4" d="M13.25 34.5C14.0784 34.5 14.75 33.8284 14.75 33C14.75 32.1716 14.0784 31.5 13.25 31.5C12.4216 31.5 11.75 32.1716 11.75 33C11.75 33.8284 12.4216 34.5 13.25 34.5Z" fill="white"/>
<path id="Vector_5" d="M13.25 7.5H10.25C10.0511 7.5 9.86032 7.42098 9.71967 7.28033C9.57902 7.13968 9.5 6.94891 9.5 6.75C9.5 6.55109 9.57902 6.36032 9.71967 6.21967C9.86032 6.07902 10.0511 6 10.25 6H13.25C13.4489 6 13.6397 6.07902 13.7803 6.21967C13.921 6.36032 14 6.55109 14 6.75C14 6.94891 13.921 7.13968 13.7803 7.28033C13.6397 7.42098 13.4489 7.5 13.25 7.5ZM22.25 10.5H4.25C4.05109 10.5 3.86032 10.421 3.71967 10.2803C3.57902 10.1397 3.5 9.94891 3.5 9.75C3.5 9.55109 3.57902 9.36032 3.71967 9.21967C3.86032 9.07902 4.05109 9 4.25 9H22.25C22.4489 9 22.6397 9.07902 22.7803 9.21967C22.921 9.36032 23 9.55109 23 9.75C23 9.94891 22.921 10.1397 22.7803 10.2803C22.6397 10.421 22.4489 10.5 22.25 10.5ZM22.25 30H4.25C4.05109 30 3.86032 29.921 3.71967 29.7803C3.57902 29.6397 3.5 29.4489 3.5 29.25C3.5 29.0511 3.57902 28.8603 3.71967 28.7197C3.86032 28.579 4.05109 28.5 4.25 28.5H22.25C22.4489 28.5 22.6397 28.579 22.7803 28.7197C22.921 28.8603 23 29.0511 23 29.25C23 29.4489 22.921 29.6397 22.7803 29.7803C22.6397 29.921 22.4489 30 22.25 30ZM16.25 7.5C16.145 7.5 16.055 7.485 15.965 7.44C15.8718 7.40722 15.789 7.35028 15.725 7.275C15.6529 7.20803 15.5957 7.12672 15.5569 7.03631C15.5182 6.94589 15.4988 6.84836 15.5 6.75C15.5 6.645 15.515 6.555 15.56 6.465C15.59 6.375 15.65 6.285 15.725 6.225C15.8657 6.08864 16.054 6.01239 16.25 6.01239C16.446 6.01239 16.6343 6.08864 16.775 6.225C16.85 6.285 16.91 6.3765 16.94 6.465C16.985 6.555 17 6.645 17 6.75C17 6.945 16.925 7.14 16.775 7.275C16.715 7.35 16.625 7.41 16.535 7.44C16.445 7.485 16.355 7.5 16.25 7.5ZM35 37.5C34.8011 37.5 34.6103 37.421 34.4697 37.2803C34.329 37.1397 34.25 36.9489 34.25 36.75V29.25C34.25 29.0511 34.171 28.8603 34.0303 28.7197C33.8897 28.579 33.6989 28.5 33.5 28.5H32.75C31.5095 28.5 30.5 27.4905 30.5 26.25V18.75C30.5 18.5511 30.579 18.3603 30.7197 18.2197C30.8603 18.079 31.0511 18 31.25 18C31.4489 18 31.6397 18.079 31.7803 18.2197C31.921 18.3603 32 18.5511 32 18.75V26.25C32 26.4489 32.079 26.6397 32.2197 26.7803C32.3603 26.921 32.5511 27 32.75 27H33.5C34.7405 27 35.75 28.0095 35.75 29.25V36.75C35.75 36.9489 35.671 37.1397 35.5303 37.2803C35.3897 37.421 35.1989 37.5 35 37.5ZM10.25 40.5H7.25C7.05109 40.5 6.86032 40.421 6.71967 40.2803C6.57902 40.1397 6.5 39.9489 6.5 39.75V36.75C6.5 36.5511 6.57902 36.3603 6.71967 36.2197C6.86032 36.079 7.05109 36 7.25 36H10.25C10.4489 36 10.6397 36.079 10.7803 36.2197C10.921 36.3603 11 36.5511 11 36.75V39.75C11 39.9489 10.921 40.1397 10.7803 40.2803C10.6397 40.421 10.4489 40.5 10.25 40.5ZM8 39H9.5V37.5H8V39Z" fill="white"/>
<path id="Vector_6" d="M33.5 45H10.25C9.0095 45 8 43.9905 8 42.75V39.75C8 39.5511 8.07902 39.3603 8.21967 39.2197C8.36032 39.079 8.55109 39 8.75 39C8.94891 39 9.13968 39.079 9.28033 39.2197C9.42098 39.3603 9.5 39.5511 9.5 39.75V42.75C9.5 42.9489 9.57902 43.1397 9.71967 43.2803C9.86032 43.421 10.0511 43.5 10.25 43.5H33.5C33.6989 43.5 33.8897 43.421 34.0303 43.2803C34.171 43.1397 34.25 42.9489 34.25 42.75V29.25C34.25 28.0095 35.2595 27 36.5 27H37.25C37.4489 27 37.6397 26.921 37.7803 26.7803C37.921 26.6397 38 26.4489 38 26.25V18.75C38 18.5511 38.079 18.3603 38.2197 18.2197C38.3603 18.079 38.5511 18 38.75 18C38.9489 18 39.1397 18.079 39.2803 18.2197C39.421 18.3603 39.5 18.5511 39.5 18.75V26.25C39.5 27.4905 38.4905 28.5 37.25 28.5H36.5C36.3011 28.5 36.1103 28.579 35.9697 28.7197C35.829 28.8603 35.75 29.0511 35.75 29.25V42.75C35.75 43.9905 34.7405 45 33.5 45ZM11.75 23.25C11.5511 23.25 11.3603 23.171 11.2197 23.0303C11.079 22.8897 11 22.6989 11 22.5V16.5C11 16.3607 11.0388 16.2242 11.112 16.1057C11.1852 15.9872 11.29 15.8915 11.4146 15.8292C11.5392 15.7669 11.6786 15.7405 11.8174 15.753C11.9561 15.7655 12.0886 15.8164 12.2 15.9L16.2005 18.9C16.2934 18.97 16.3687 19.0607 16.4206 19.1648C16.4725 19.2689 16.4995 19.3837 16.4995 19.5C16.4995 19.6163 16.4725 19.7311 16.4206 19.8352C16.3687 19.9393 16.2934 20.03 16.2005 20.1L12.2 23.1C12.0702 23.1974 11.9123 23.25 11.75 23.25ZM12.5 18V21L14.4995 19.5L12.5 18Z" fill="white"/>
</g>
</svg>
