<svg width="49" height="48" viewBox="0 0 49 48" fill="none" xmlns="http://www.w3.org/2000/svg">
<g id="music-mixing" clip-path="url(#clip0_65_705)">
<path id="Vector" d="M46.25 37.1257H2.75C1.5095 37.1257 0.5 36.1162 0.5 34.8757V10.125C0.5 8.8845 1.5095 7.875 2.75 7.875H46.25C47.4905 7.875 48.5 8.8845 48.5 10.125V34.8757C48.5 36.1162 47.4905 37.1257 46.25 37.1257ZM2.75 9.375C2.336 9.375 2 9.711 2 10.125V34.8757C2 35.2897 2.336 35.6257 2.75 35.6257H46.25C46.664 35.6257 47 35.2897 47 34.8757V10.125C47 9.711 46.664 9.375 46.25 9.375H2.75Z" fill="white"/>
<path id="Vector_2" d="M46.25 40.125H2.75C1.5095 40.125 0.5 39.1155 0.5 37.875V13.1243C0.5 12.7095 0.83525 12.3743 1.25 12.3743C1.66475 12.3743 2 12.7095 2 13.1243V37.875C2 38.289 2.336 38.625 2.75 38.625H46.25C46.664 38.625 47 38.289 47 37.875V13.1243C47 12.7095 47.3353 12.3743 47.75 12.3743C48.1647 12.3743 48.5 12.7095 48.5 13.1243V37.875C48.5 39.1155 47.4905 40.125 46.25 40.125Z" fill="white"/>
<path id="Vector_3" d="M5.75075 28.8787C5.336 28.8787 5.00075 28.5435 5.00075 28.1287V17.6257C5.00075 17.211 5.336 16.8757 5.75075 16.8757C6.1655 16.8757 6.50075 17.211 6.50075 17.6257V28.1287C6.50075 28.5435 6.1655 28.8787 5.75075 28.8787Z" fill="white"/>
<path id="Vector_4" d="M7.25075 31.8788H4.25075C3.836 31.8788 3.50075 31.5435 3.50075 31.1288V28.1288C3.50075 27.714 3.836 27.3788 4.25075 27.3788H7.25075C7.6655 27.3788 8.00075 27.714 8.00075 28.1288V31.1288C8.00075 31.5435 7.6655 31.8788 7.25075 31.8788ZM5.00075 30.3788H6.50075V28.8788H5.00075V30.3788Z" fill="white"/>
<path id="Vector_5" d="M5.75075 34.1257C5.336 34.1257 5.00075 33.7905 5.00075 33.3757V31.1287C5.00075 30.714 5.336 30.3787 5.75075 30.3787C6.1655 30.3787 6.50075 30.714 6.50075 31.1287V33.3757C6.50075 33.7905 6.1655 34.1257 5.75075 34.1257ZM10.9992 22.122C10.5845 22.122 10.2492 21.7867 10.2492 21.372V17.6257C10.2492 17.211 10.5845 16.8757 10.9992 16.8757C11.414 16.8757 11.7492 17.211 11.7492 17.6257V21.372C11.7492 21.7867 11.414 22.122 10.9992 22.122Z" fill="white"/>
<path id="Vector_6" d="M12.4993 25.1219H9.49925C9.0845 25.1219 8.74925 24.7867 8.74925 24.3719V21.3719C8.74925 20.9572 9.0845 20.6219 9.49925 20.6219H12.4993C12.914 20.6219 13.2493 20.9572 13.2493 21.3719V24.3719C13.2493 24.7867 12.914 25.1219 12.4993 25.1219ZM10.2493 23.6219H11.7493V22.1219H10.2493V23.6219Z" fill="white"/>
<path id="Vector_7" d="M10.9993 34.1257C10.5845 34.1257 10.2493 33.7905 10.2493 33.3757V24.372C10.2493 23.9572 10.5845 23.622 10.9993 23.622C11.414 23.622 11.7493 23.9572 11.7493 24.372V33.3757C11.7493 33.7905 11.414 34.1257 10.9993 34.1257ZM16.2478 26.6265C15.833 26.6265 15.4978 26.2912 15.4978 25.8765V17.6257C15.4978 17.211 15.833 16.8757 16.2478 16.8757C16.6625 16.8757 16.9978 17.211 16.9978 17.6257V25.8765C16.9978 26.2912 16.6625 26.6265 16.2478 26.6265Z" fill="white"/>
<path id="Vector_8" d="M17.7477 29.6265H14.7477C14.333 29.6265 13.9977 29.2912 13.9977 28.8765V25.8765C13.9977 25.4617 14.333 25.1265 14.7477 25.1265H17.7477C18.1625 25.1265 18.4977 25.4617 18.4977 25.8765V28.8765C18.4977 29.2912 18.1625 29.6265 17.7477 29.6265ZM15.4977 28.1265H16.9977V26.6265H15.4977V28.1265Z" fill="white"/>
<path id="Vector_9" d="M16.2477 34.1257C15.833 34.1257 15.4977 33.7905 15.4977 33.3757V28.8765C15.4977 28.4617 15.833 28.1265 16.2477 28.1265C16.6625 28.1265 16.9977 28.4617 16.9977 28.8765V33.3757C16.9977 33.7905 16.6625 34.1257 16.2477 34.1257ZM21.4962 20.6205C21.0815 20.6205 20.7462 20.2852 20.7462 19.8705V17.6257C20.7462 17.211 21.0815 16.8757 21.4962 16.8757C21.911 16.8757 22.2462 17.211 22.2462 17.6257V19.8705C22.2462 20.2852 21.911 20.6205 21.4962 20.6205Z" fill="white"/>
<path id="Vector_10" d="M22.9962 23.6205H19.9962C19.5815 23.6205 19.2462 23.2852 19.2462 22.8705V19.8705C19.2462 19.4557 19.5815 19.1205 19.9962 19.1205H22.9962C23.411 19.1205 23.7462 19.4557 23.7462 19.8705V22.8705C23.7462 23.2852 23.411 23.6205 22.9962 23.6205ZM20.7462 22.1205H22.2462V20.6205H20.7462V22.1205Z" fill="white"/>
<path id="Vector_11" d="M21.4962 34.1257C21.0815 34.1257 20.7462 33.7905 20.7462 33.3757V22.8705C20.7462 22.4557 21.0815 22.1205 21.4962 22.1205C21.911 22.1205 22.2462 22.4557 22.2462 22.8705V33.3757C22.2462 33.7905 21.911 34.1257 21.4962 34.1257ZM26.7447 28.128C26.33 28.128 25.9947 27.7927 25.9947 27.378V17.6257C25.9947 17.211 26.33 16.8757 26.7447 16.8757C27.1595 16.8757 27.4947 17.211 27.4947 17.6257V27.378C27.4947 27.7927 27.1595 28.128 26.7447 28.128Z" fill="white"/>
<path id="Vector_12" d="M28.2448 31.1281H25.2448C24.83 31.1281 24.4948 30.7928 24.4948 30.3781V27.3781C24.4948 26.9633 24.83 26.6281 25.2448 26.6281H28.2448C28.6595 26.6281 28.9948 26.9633 28.9948 27.3781V30.3781C28.9948 30.7928 28.6595 31.1281 28.2448 31.1281ZM25.9948 29.6281H27.4948V28.1281H25.9948V29.6281Z" fill="white"/>
<path id="Vector_13" d="M26.7448 34.1257C26.33 34.1257 25.9948 33.7905 25.9948 33.3757V30.378C25.9948 29.9632 26.33 29.628 26.7448 29.628C27.1595 29.628 27.4948 29.9632 27.4948 30.378V33.3757C27.4948 33.7905 27.1595 34.1257 26.7448 34.1257ZM31.9933 21.3712C31.5785 21.3712 31.2433 21.036 31.2433 20.6212V17.6257C31.2433 17.211 31.5785 16.8757 31.9933 16.8757C32.408 16.8757 32.7433 17.211 32.7433 17.6257V20.6212C32.7433 21.036 32.408 21.3712 31.9933 21.3712Z" fill="white"/>
<path id="Vector_14" d="M33.4933 24.3712H30.4933C30.0785 24.3712 29.7433 24.036 29.7433 23.6212V20.6212C29.7433 20.2065 30.0785 19.8712 30.4933 19.8712H33.4933C33.908 19.8712 34.2433 20.2065 34.2433 20.6212V23.6212C34.2433 24.036 33.908 24.3712 33.4933 24.3712ZM31.2433 22.8712H32.7433V21.3712H31.2433V22.8712Z" fill="white"/>
<path id="Vector_15" d="M31.9933 34.1257C31.5785 34.1257 31.2433 33.7905 31.2433 33.3757V23.6212C31.2433 23.2065 31.5785 22.8712 31.9933 22.8712C32.408 22.8712 32.7433 23.2065 32.7433 23.6212V33.3757C32.7433 33.7905 32.408 34.1257 31.9933 34.1257ZM37.2418 25.8757C36.827 25.8757 36.4918 25.5405 36.4918 25.1257V17.6257C36.4918 17.211 36.827 16.8757 37.2418 16.8757C37.6565 16.8757 37.9918 17.211 37.9918 17.6257V25.1257C37.9918 25.5405 37.6565 25.8757 37.2418 25.8757Z" fill="white"/>
<path id="Vector_16" d="M38.7417 28.8757H35.7417C35.327 28.8757 34.9917 28.5405 34.9917 28.1257V25.1257C34.9917 24.711 35.327 24.3757 35.7417 24.3757H38.7417C39.1565 24.3757 39.4917 24.711 39.4917 25.1257V28.1257C39.4917 28.5405 39.1565 28.8757 38.7417 28.8757ZM36.4917 27.3757H37.9917V25.8757H36.4917V27.3757Z" fill="white"/>
<path id="Vector_17" d="M37.2417 34.1257C36.827 34.1257 36.4917 33.7905 36.4917 33.3757V28.1257C36.4917 27.711 36.827 27.3757 37.2417 27.3757C37.6565 27.3757 37.9917 27.711 37.9917 28.1257V33.3757C37.9917 33.7905 37.6565 34.1257 37.2417 34.1257ZM44.7493 22.1257H40.9993C40.5845 22.1257 40.2493 21.7905 40.2493 21.3757V17.6257C40.2493 17.211 40.5845 16.8757 40.9993 16.8757H44.7493C45.164 16.8757 45.4993 17.211 45.4993 17.6257V21.3757C45.4993 21.7905 45.164 22.1257 44.7493 22.1257ZM41.7493 20.6257H43.9993V18.3757H41.7493V20.6257ZM41.7725 27.3787C41.3577 27.3787 41.0188 27.0435 41.0188 26.6287C41.0188 26.214 41.3503 25.8787 41.7643 25.8787H41.7725C42.1865 25.8787 42.5225 26.214 42.5225 26.6287C42.5225 27.0435 42.1865 27.3787 41.7725 27.3787ZM44.0225 27.3787C43.6077 27.3787 43.2688 27.0435 43.2688 26.6287C43.2688 26.214 43.6003 25.8787 44.0143 25.8787H44.0225C44.4365 25.8787 44.7725 26.214 44.7725 26.6287C44.7725 27.0435 44.4365 27.3787 44.0225 27.3787ZM41.7725 25.1265C41.3577 25.1265 41.0188 24.7912 41.0188 24.3765C41.0188 23.9617 41.3503 23.6265 41.7643 23.6265H41.7725C42.1865 23.6265 42.5225 23.9617 42.5225 24.3765C42.5225 24.7912 42.1865 25.1265 41.7725 25.1265ZM44.0225 25.1265C43.6077 25.1265 43.2688 24.7912 43.2688 24.3765C43.2688 23.9617 43.6003 23.6265 44.0143 23.6265H44.0225C44.4365 23.6265 44.7725 23.9617 44.7725 24.3765C44.7725 24.7912 44.4365 25.1265 44.0225 25.1265ZM41.7725 29.628C41.3577 29.628 41.0188 29.2927 41.0188 28.878C41.0188 28.4632 41.3503 28.128 41.7643 28.128H41.7725C42.1865 28.128 42.5225 28.4632 42.5225 28.878C42.5225 29.2927 42.1865 29.628 41.7725 29.628ZM44.0225 29.628C43.6077 29.628 43.2688 29.2927 43.2688 28.878C43.2688 28.4632 43.6003 28.128 44.0143 28.128H44.0225C44.4365 28.128 44.7725 28.4632 44.7725 28.878C44.7725 29.2927 44.4365 29.628 44.0225 29.628ZM41.7725 31.8772C41.3577 31.8772 41.0188 31.542 41.0188 31.1272C41.0188 30.7125 41.3503 30.3772 41.7643 30.3772H41.7725C42.1865 30.3772 42.5225 30.7125 42.5225 31.1272C42.5225 31.542 42.1865 31.8772 41.7725 31.8772ZM44.0225 31.8772C43.6077 31.8772 43.2688 31.542 43.2688 31.1272C43.2688 30.7125 43.6003 30.3772 44.0143 30.3772H44.0225C44.4365 30.3772 44.7725 30.7125 44.7725 31.1272C44.7725 31.542 44.4365 31.8772 44.0225 31.8772ZM41.7725 34.1265C41.3577 34.1265 41.0188 33.7912 41.0188 33.3765C41.0188 32.9617 41.3503 32.6265 41.7643 32.6265H41.7725C42.1865 32.6265 42.5225 32.9617 42.5225 33.3765C42.5225 33.7912 42.1865 34.1265 41.7725 34.1265ZM44.0225 34.1265C43.6077 34.1265 43.2688 33.7912 43.2688 33.3765C43.2688 32.9617 43.6003 32.6265 44.0143 32.6265H44.0225C44.4365 32.6265 44.7725 32.9617 44.7725 33.3765C44.7725 33.7912 44.4365 34.1265 44.0225 34.1265ZM5.75 15.3757C4.5095 15.3757 3.5 14.3662 3.5 13.1257C3.5 11.8852 4.5095 10.8757 5.75 10.8757C6.9905 10.8757 8 11.8852 8 13.1257C8 14.3662 6.9905 15.3757 5.75 15.3757ZM5.75 12.3757C5.336 12.3757 5 12.7117 5 13.1257C5 13.5397 5.336 13.8757 5.75 13.8757C6.164 13.8757 6.5 13.5397 6.5 13.1257C6.5 12.7117 6.164 12.3757 5.75 12.3757ZM11.75 15.3757C10.5095 15.3757 9.5 14.3662 9.5 13.1257C9.5 11.8852 10.5095 10.8757 11.75 10.8757C12.9905 10.8757 14 11.8852 14 13.1257C14 14.3662 12.9905 15.3757 11.75 15.3757ZM11.75 12.3757C11.336 12.3757 11 12.7117 11 13.1257C11 13.5397 11.336 13.8757 11.75 13.8757C12.164 13.8757 12.5 13.5397 12.5 13.1257C12.5 12.7117 12.164 12.3757 11.75 12.3757ZM17.75 15.3757C16.5095 15.3757 15.5 14.3662 15.5 13.1257C15.5 11.8852 16.5095 10.8757 17.75 10.8757C18.9905 10.8757 20 11.8852 20 13.1257C20 14.3662 18.9905 15.3757 17.75 15.3757ZM17.75 12.3757C17.336 12.3757 17 12.7117 17 13.1257C17 13.5397 17.336 13.8757 17.75 13.8757C18.164 13.8757 18.5 13.5397 18.5 13.1257C18.5 12.7117 18.164 12.3757 17.75 12.3757ZM31.2515 15.3757C30.011 15.3757 29.0015 14.3662 29.0015 13.1257C29.0015 11.8852 30.011 10.8757 31.2515 10.8757C32.492 10.8757 33.5015 11.8852 33.5015 13.1257C33.5015 14.3662 32.492 15.3757 31.2515 15.3757ZM31.2515 12.3757C30.8375 12.3757 30.5015 12.7117 30.5015 13.1257C30.5015 13.5397 30.8375 13.8757 31.2515 13.8757C31.6655 13.8757 32.0015 13.5397 32.0015 13.1257C32.0015 12.7117 31.6655 12.3757 31.2515 12.3757ZM37.2515 15.3757C36.011 15.3757 35.0015 14.3662 35.0015 13.1257C35.0015 11.8852 36.011 10.8757 37.2515 10.8757C38.492 10.8757 39.5015 11.8852 39.5015 13.1257C39.5015 14.3662 38.492 15.3757 37.2515 15.3757ZM37.2515 12.3757C36.8375 12.3757 36.5015 12.7117 36.5015 13.1257C36.5015 13.5397 36.8375 13.8757 37.2515 13.8757C37.6655 13.8757 38.0015 13.5397 38.0015 13.1257C38.0015 12.7117 37.6655 12.3757 37.2515 12.3757ZM43.2515 15.3757C42.011 15.3757 41.0015 14.3662 41.0015 13.1257C41.0015 11.8852 42.011 10.8757 43.2515 10.8757C44.492 10.8757 45.5015 11.8852 45.5015 13.1257C45.5015 14.3662 44.492 15.3757 43.2515 15.3757ZM43.2515 12.3757C42.8375 12.3757 42.5015 12.7117 42.5015 13.1257C42.5015 13.5397 42.8375 13.8757 43.2515 13.8757C43.6655 13.8757 44.0015 13.5397 44.0015 13.1257C44.0015 12.7117 43.6655 12.3757 43.2515 12.3757ZM26.75 15.3757H22.247C21.8323 15.3757 21.497 15.0405 21.497 14.6257V11.6257C21.497 11.211 21.8323 10.8757 22.247 10.8757H26.75C27.1647 10.8757 27.5 11.211 27.5 11.6257V14.6257C27.5 15.0405 27.1647 15.3757 26.75 15.3757ZM22.997 13.8757H26V12.3757H22.997V13.8757Z" fill="white"/>
</g>
<defs>
<clipPath id="clip0_65_705">
<rect width="48" height="48" fill="white" transform="translate(0.5)"/>
</clipPath>
</defs>
</svg>
