<svg width="61" height="22" viewBox="0 0 61 22" fill="none" xmlns="http://www.w3.org/2000/svg">
<g id="slalt 1" clip-path="url(#clip0_6_796)">
<path id="Vector" d="M17.7527 0C17.7654 0 17.7778 0 17.7901 0L21.0331 1.02567C21.0893 1.04363 21.1127 1.07755 21.1032 1.12744C20.5567 3.91277 20.0196 6.64141 19.4921 9.31333C19.3416 10.0743 19.1719 11.0394 18.983 12.2088C18.7711 13.5174 18.5572 14.8231 18.3414 16.1258C18.3407 16.1298 18.3414 16.1339 18.3433 16.1376C18.3452 16.1413 18.3483 16.1445 18.3523 16.1468C18.3562 16.1491 18.3608 16.1505 18.3656 16.1508C18.3704 16.151 18.3752 16.1502 18.3794 16.1483L24.4887 13.5288C24.5101 13.5194 24.5313 13.5193 24.5523 13.5283L25.5289 13.9403C25.5745 13.9596 25.6071 13.9496 25.6269 13.9104C26.9378 11.3409 28.2228 8.82012 29.4818 6.34807C29.6464 6.02531 29.663 5.68807 29.824 5.38077C30.5681 3.96233 31.3099 2.55602 32.0493 1.16186C32.066 1.1306 32.0943 1.11214 32.1343 1.10649L37.1083 0.388118C37.1111 0.387672 37.114 0.387753 37.1167 0.388353C37.1194 0.388953 37.122 0.390058 37.1241 0.391587C37.1263 0.393116 37.128 0.395032 37.1292 0.397193C37.1304 0.399354 37.131 0.401708 37.1309 0.404082C37.1293 0.564051 37.1186 0.724686 37.0988 0.885986C36.9673 1.97152 36.8442 3.05788 36.7293 4.14508C36.7062 4.36258 36.6574 4.5776 36.6479 4.78961C36.5707 6.49208 36.4923 8.19454 36.4127 9.89701C36.4115 9.91563 36.42 9.93026 36.4382 9.94091L38.6743 11.2464C38.6937 11.2577 38.6929 11.2679 38.6719 11.2769L36.3871 12.2751C36.3718 12.2817 36.3589 12.2917 36.3499 12.304C36.3408 12.3164 36.3361 12.3305 36.3361 12.3449L36.2737 18.4755C36.2735 18.4829 36.2757 18.4903 36.28 18.4968C36.2843 18.5033 36.2905 18.5088 36.2981 18.5126C36.3057 18.5164 36.3143 18.5185 36.3232 18.5187C36.332 18.5188 36.3408 18.517 36.3485 18.5134L37.2034 18.1283C37.2224 18.1197 37.2341 18.1065 37.2384 18.0889L41.404 0.044898C41.4056 0.0380235 41.409 0.0315277 41.4139 0.02586C41.4188 0.0201922 41.4251 0.0154877 41.4324 0.0120718C41.4397 0.00865601 41.4478 0.00661039 41.4561 0.00607648C41.4644 0.00554257 41.4728 0.00653311 41.4806 0.00897959L44.7735 1.04612C44.7794 1.04793 44.7843 1.05136 44.7874 1.05583C44.7906 1.06029 44.7917 1.06551 44.7907 1.07057C44.3277 3.4159 43.8673 5.75808 43.4095 8.0971C43.1648 9.34726 43.0121 10.1529 42.9515 10.5141C42.6406 12.3722 42.3323 14.2198 42.0266 16.057C42.0249 16.0674 42.0266 16.0779 42.0316 16.0875C42.0365 16.0971 42.0445 16.1054 42.0547 16.1115C42.0648 16.1175 42.0768 16.1211 42.0892 16.1219C42.1016 16.1227 42.1141 16.1206 42.1252 16.1159L48.1727 13.5268C48.1889 13.5198 48.2052 13.5196 48.2214 13.5263L50.5507 14.505C50.5592 14.5086 50.5688 14.5101 50.5782 14.5095C50.5877 14.5089 50.5969 14.5062 50.6046 14.5016C50.6124 14.497 50.6186 14.4907 50.6225 14.4834C50.6264 14.4761 50.6279 14.4681 50.6268 14.4601C50.6107 14.3439 50.6529 14.2112 50.6648 14.1259C51.1 11.0898 51.5406 8.02975 51.9866 4.94576C51.9949 4.88856 51.9677 4.87159 51.9052 4.89488L47.6232 6.48676C47.6022 6.49441 47.582 6.49308 47.5626 6.48277L44.4699 4.84349C44.4663 4.84146 44.4633 4.83865 44.4614 4.83535C44.4594 4.83206 44.4586 4.82841 44.4589 4.82478C44.4592 4.82115 44.4606 4.81769 44.4631 4.81475C44.4656 4.81181 44.469 4.8095 44.4729 4.80807C47.0159 3.86156 49.564 2.9167 52.1172 1.97351C53.8899 1.3185 55.7101 0.730839 57.5107 0.116735C57.5242 0.112173 57.5386 0.109994 57.553 0.110338C57.5675 0.110682 57.5816 0.11354 57.5945 0.11873L60.3646 1.25515C60.3685 1.25675 60.3717 1.25924 60.374 1.26232C60.3763 1.26541 60.3775 1.26897 60.3775 1.27261C60.3775 1.27624 60.3763 1.27981 60.374 1.28289C60.3717 1.28598 60.3685 1.28846 60.3646 1.29007L54.4073 3.77791C54.3963 3.78245 54.3872 3.78978 54.3814 3.79887C54.3756 3.80796 54.3733 3.81836 54.3749 3.8286C54.3764 3.83884 54.3818 3.84841 54.3902 3.85596C54.3986 3.86352 54.4095 3.86867 54.4216 3.8707L55.864 4.11964C55.8846 4.12296 55.8935 4.13344 55.8907 4.15107L53.2887 21.8269C53.284 21.8592 53.2628 21.8716 53.2252 21.8643L49.703 21.1844C49.6673 21.1774 49.6517 21.1586 49.6561 21.128C49.9115 19.3347 50.1662 17.5802 50.42 15.8644C50.4327 15.781 50.4351 15.7125 50.4272 15.6589C50.4216 15.6207 50.3984 15.6102 50.3576 15.6275L41.426 19.3815C41.4196 19.3841 41.4141 19.3879 41.4096 19.3926C41.4052 19.3972 41.4021 19.4026 41.4004 19.4084L40.7464 21.799C40.7456 21.802 40.744 21.8048 40.7418 21.8073C40.7396 21.8098 40.7368 21.8118 40.7335 21.8133C40.7303 21.8148 40.7267 21.8157 40.723 21.816C40.7192 21.8163 40.7155 21.8159 40.7119 21.8149L36.822 20.667C36.8069 20.6626 36.7937 20.6544 36.7841 20.6436C36.7745 20.6328 36.7689 20.6198 36.7679 20.6062L36.7477 20.2265C36.7469 20.2099 36.7378 20.1976 36.7204 20.1896L36.3468 20.0165C36.3382 20.0126 36.3287 20.0106 36.319 20.0107C36.3093 20.0108 36.2998 20.013 36.2915 20.0171C36.2832 20.0212 36.2763 20.027 36.2715 20.034C36.2667 20.0409 36.2642 20.0489 36.2642 20.0569L36.2428 21.7645C36.2424 21.8011 36.2208 21.8159 36.178 21.8089L33.6248 21.3849C33.6026 21.3812 33.5826 21.3714 33.5678 21.357C33.553 21.3427 33.5442 21.3246 33.5428 21.3056L32.9844 13.8485C32.9838 13.842 32.9813 13.8358 32.9772 13.8303C32.973 13.8248 32.9672 13.8203 32.9604 13.8172C32.9536 13.814 32.946 13.8124 32.9383 13.8124C32.9305 13.8124 32.9229 13.814 32.9161 13.8171L28.3174 15.9133C28.283 15.9289 28.2548 15.9527 28.2367 15.9817L26.0107 19.5007C26.0022 19.514 25.9902 19.5255 25.9756 19.5344C25.961 19.5432 25.9441 19.5491 25.9264 19.5516L22.8111 19.9806C22.8061 19.9813 22.8009 19.9809 22.7962 19.9792C22.7915 19.9775 22.7874 19.9748 22.7843 19.9712C22.7812 19.9675 22.7793 19.9632 22.7787 19.9587C22.778 19.9541 22.7788 19.9494 22.7808 19.9452L24.2624 16.723C24.2657 16.7155 24.2663 16.7073 24.2641 16.6995C24.2619 16.6918 24.2569 16.6847 24.25 16.6793C24.243 16.6739 24.2342 16.6705 24.2249 16.6694C24.2156 16.6683 24.2061 16.6696 24.1976 16.6731L17.7675 19.3735C17.7566 19.378 17.747 19.3845 17.7394 19.3926C17.7318 19.4008 17.7264 19.4102 17.7236 19.4204L17.0713 21.7925C17.0658 21.8128 17.0513 21.8194 17.0279 21.8124L13.125 20.66C13.0992 20.6524 13.0856 20.6371 13.084 20.6141L13.0602 20.2156C13.0597 20.2076 13.0568 20.2 13.0518 20.1934C13.0468 20.1867 13.0399 20.1813 13.0317 20.1776L12.0153 19.7257C11.9956 19.7169 11.9729 19.714 11.951 19.7172C11.9291 19.7205 11.909 19.7298 11.8941 19.7436C11.7345 19.8913 11.5616 20.0458 11.3755 20.2071C11.284 20.2859 11.2703 20.2709 11.126 20.2864C10.7089 20.3313 10.2909 20.3707 9.8719 20.4046C9.65883 20.4219 9.45388 20.4542 9.25704 20.5014C7.23209 20.988 5.20972 21.4817 3.18991 21.9825C3.18108 21.9847 3.17177 21.985 3.16278 21.9836C3.15379 21.9821 3.14537 21.9788 3.13823 21.9741C2.28694 21.4173 1.44694 20.8581 0.526152 20.3847C0.52307 20.3832 0.520572 20.381 0.518941 20.3784C0.517309 20.3757 0.516608 20.3727 0.516917 20.3697C0.517226 20.3667 0.518532 20.3638 0.520688 20.3613C0.522845 20.3589 0.525766 20.3569 0.529122 20.3557C1.74457 19.9616 2.95348 19.5336 4.18199 19.1654C5.57368 18.7477 6.96635 18.3388 8.36001 17.9387C8.36542 17.9372 8.37036 17.9347 8.37452 17.9314C8.37869 17.9281 8.38197 17.9241 8.38416 17.9197C8.38635 17.9152 8.38739 17.9105 8.38723 17.9057C8.38706 17.9009 8.38568 17.8962 8.38318 17.8918C6.58734 14.8682 4.62873 11.9064 2.72239 8.93419C2.71703 8.92572 2.71495 8.91605 2.71644 8.90649C2.71793 8.89693 2.72291 8.88796 2.73071 8.88082L5.05348 6.76762C5.06734 6.75531 5.08239 6.75415 5.09863 6.76413L5.32853 6.90431C5.3492 6.91702 5.37403 6.92408 5.39964 6.92452C5.42526 6.92497 5.45042 6.91878 5.4717 6.9068C6.20596 6.49574 6.94021 6.09315 7.6418 5.63469C8.65289 4.9732 9.65665 4.31353 10.6531 3.65569C10.6607 3.65057 10.6698 3.64718 10.6794 3.64586C10.6891 3.64453 10.699 3.6453 10.7082 3.64811C10.7173 3.65091 10.7255 3.65565 10.7319 3.66187C10.7383 3.66809 10.7426 3.67558 10.7446 3.68363C10.7584 3.74017 10.7925 3.7859 10.8467 3.82082C10.8507 3.82354 10.8555 3.82533 10.8606 3.826C10.8657 3.82667 10.8709 3.8262 10.8758 3.82464C10.8806 3.82309 10.8849 3.82049 10.8883 3.81711C10.8916 3.81372 10.8939 3.80967 10.8949 3.80535L11.3784 1.64327C11.3788 1.64133 11.3798 1.63951 11.3812 1.63793C11.3825 1.63635 11.3844 1.63505 11.3865 1.63414C11.3886 1.63323 11.391 1.63272 11.3934 1.63266C11.3958 1.6326 11.3982 1.63298 11.4004 1.63379L14.9178 2.98571C14.9349 2.99237 14.9412 3.00334 14.9368 3.01864C14.4941 4.54417 14.0436 6.06788 13.5854 7.58975C13.4048 8.18989 13.1689 8.78404 12.9479 9.37968C12.9424 9.39432 12.9305 9.40213 12.9123 9.40313L10.1867 9.59918C10.1602 9.60118 10.1479 9.59103 10.1499 9.56875L10.3632 7.38172C10.3639 7.37402 10.3624 7.36627 10.3588 7.35916C10.3552 7.35205 10.3496 7.34577 10.3424 7.34087C10.3352 7.33597 10.3267 7.33258 10.3176 7.33101C10.3085 7.32944 10.2991 7.32972 10.2901 7.33184C10.2624 7.33882 10.2341 7.35063 10.2052 7.36726C9.32358 7.86645 8.41704 8.38611 7.48556 8.92621C7.47379 8.93307 7.46503 8.94299 7.46063 8.95443C7.45623 8.96588 7.45643 8.97823 7.4612 8.98957C7.48299 9.04278 7.51269 9.10231 7.55031 9.16816C9.11803 11.8945 10.6982 14.6163 12.2065 17.366C12.2251 17.4001 12.2561 17.4282 12.2951 17.4463L13.5081 18.0111C13.5156 18.0145 13.5239 18.0164 13.5324 18.0166C13.5408 18.0169 13.5493 18.0154 13.557 18.0124C13.5647 18.0094 13.5714 18.0049 13.5766 17.9993C13.5819 17.9937 13.5855 17.9871 13.5871 17.9801L17.7527 0ZM32.7468 7.40617C31.8913 9.06473 31.0299 10.7211 30.1626 12.3754C30.1487 12.402 30.1444 12.4219 30.1495 12.4352C30.1513 12.4398 30.1541 12.444 30.158 12.4475C30.1618 12.4511 30.1665 12.4539 30.1717 12.4558C30.177 12.4577 30.1826 12.4586 30.1883 12.4585C30.194 12.4584 30.1996 12.4573 30.2048 12.4552L32.8834 11.3707C32.8924 11.367 32.9 11.3611 32.9053 11.3539C32.9105 11.3467 32.9132 11.3383 32.9131 11.3298L32.8388 7.36626C32.8388 7.36157 32.8373 7.35697 32.8346 7.35288C32.8318 7.34879 32.8279 7.34535 32.8232 7.34286C32.8185 7.34038 32.8131 7.33894 32.8075 7.33867C32.8019 7.33839 32.7963 7.33931 32.7913 7.34131C32.7515 7.35678 32.7604 7.37923 32.7468 7.40617Z" fill="white"/>
</g>
<defs>
<clipPath id="clip0_6_796">
<rect width="60" height="22" fill="white" transform="translate(0.5)"/>
</clipPath>
</defs>
</svg>
