<svg width="16" height="16" viewBox="0 0 16 16" fill="none" xmlns="http://www.w3.org/2000/svg">
<g id="Wb sunny" clip-path="url(#clip0_4_735)">
<path id="Vector" d="M4.03108 3.69898C4.2933 3.43861 4.29346 3.01456 4.03144 2.754L3.7774 2.50137C3.51725 2.24267 3.09683 2.24326 2.8374 2.50268C2.57747 2.76262 2.57747 3.18405 2.8374 3.44399L3.09074 3.69732C3.35022 3.9568 3.77069 3.95755 4.03108 3.69898ZM2.66675 7.66667C2.66675 7.29848 2.36827 7 2.00008 7H1.33341C0.965225 7 0.666748 7.29848 0.666748 7.66667C0.666748 8.03486 0.965225 8.33333 1.33341 8.33333H2.00008C2.36827 8.33333 2.66675 8.03486 2.66675 7.66667ZM8.66675 1.03334C8.66675 0.665145 8.36827 0.366669 8.00008 0.366669C7.63189 0.366669 7.33341 0.665145 7.33341 1.03334V1.66667C7.33341 2.03486 7.63189 2.33333 8.00008 2.33333C8.36827 2.33333 8.66675 2.03486 8.66675 1.66667V1.03334ZM13.1634 3.44333C13.423 3.18376 13.423 2.76291 13.1634 2.50333C12.9038 2.24376 12.483 2.24376 12.2234 2.50333L11.9701 2.75667C11.7105 3.01624 11.7105 3.43709 11.9701 3.69667C12.2297 3.95624 12.6505 3.95624 12.9101 3.69667L13.1634 3.44333ZM11.9601 11.64C11.7021 11.8979 11.7016 12.316 11.9588 12.5746L12.2181 12.8354C12.4767 13.0954 12.8974 13.096 13.1567 12.8367C13.4161 12.5773 13.4155 12.1566 13.1554 11.898L12.8947 11.6387C12.6361 11.3815 12.218 11.3821 11.9601 11.64ZM14.0001 7C13.6319 7 13.3334 7.29848 13.3334 7.66667C13.3334 8.03486 13.6319 8.33333 14.0001 8.33333H14.6667C15.0349 8.33333 15.3334 8.03486 15.3334 7.66667C15.3334 7.29848 15.0349 7 14.6667 7H14.0001ZM8.00008 3.66667C5.79341 3.66667 4.00008 5.46 4.00008 7.66667C4.00008 9.87333 5.79341 11.6667 8.00008 11.6667C10.2067 11.6667 12.0001 9.87333 12.0001 7.66667C12.0001 5.46 10.2067 3.66667 8.00008 3.66667ZM7.33341 14.3C7.33341 14.6682 7.63189 14.9667 8.00008 14.9667C8.36827 14.9667 8.66675 14.6682 8.66675 14.3V13.6667C8.66675 13.2985 8.36827 13 8.00008 13C7.63189 13 7.33341 13.2985 7.33341 13.6667V14.3ZM2.83413 11.89C2.57579 12.1498 2.57638 12.5696 2.83544 12.8287C3.09552 13.0888 3.51738 13.0882 3.77674 12.8274L4.0327 12.57C4.29104 12.3102 4.29045 11.8904 4.03139 11.6313C3.77131 11.3712 3.34945 11.3718 3.09009 11.6326L2.83413 11.89Z" fill="#939393"/>
</g>
<defs>
<clipPath id="clip0_4_735">
<rect width="16" height="16" fill="white"/>
</clipPath>
</defs>
</svg>
