<svg width="33" height="33" viewBox="0 0 33 33" fill="none" xmlns="http://www.w3.org/2000/svg">
<path id="Vector" d="M30.9 0.5H2.1C1.67565 0.5 1.26869 0.668571 0.968629 0.968629C0.668571 1.26869 0.5 1.67565 0.5 2.1V30.9C0.5 31.3243 0.668571 31.7313 0.968629 32.0314C1.26869 32.3314 1.67565 32.5 2.1 32.5H30.9C31.3243 32.5 31.7313 32.3314 32.0314 32.0314C32.3314 31.7313 32.5 31.3243 32.5 30.9V2.1C32.5 1.67565 32.3314 1.26869 32.0314 0.968629C31.7313 0.668571 31.3243 0.5 30.9 0.5ZM25.6504 14.46C25.476 14.477 25.3009 14.4861 25.1256 14.4872C24.1763 14.4884 23.2417 14.2531 22.4061 13.8025C21.5706 13.3519 20.8605 12.7003 20.34 11.9064V20.6952C20.3403 21.9804 19.9595 23.2369 19.2456 24.3057C18.5318 25.3744 17.517 26.2075 16.3297 26.6995C15.1423 27.1915 13.8357 27.3203 12.5752 27.0696C11.3146 26.819 10.1567 26.2001 9.2479 25.2913C8.3391 24.3825 7.72023 23.2246 7.46957 21.964C7.21891 20.7035 7.34772 19.3969 7.83971 18.2095C8.33169 17.0222 9.16475 16.0074 10.2335 15.2936C11.3023 14.5797 12.5588 14.1989 13.844 14.1992C13.98 14.1992 14.1112 14.212 14.2456 14.22V17.42C13.798 17.3658 13.3439 17.4037 12.9115 17.5313C12.479 17.659 12.0772 17.8738 11.7308 18.1625C11.3844 18.4511 11.1007 18.8076 10.897 19.2099C10.6934 19.6122 10.5743 20.052 10.5468 20.502C10.5194 20.9521 10.5843 21.4031 10.7376 21.8272C10.8908 22.2512 11.1292 22.6395 11.438 22.9681C11.7468 23.2967 12.1195 23.5586 12.5333 23.7379C12.947 23.9171 13.3931 24.0099 13.844 24.0104C14.7339 24.0265 15.5945 23.6927 16.2408 23.0808C16.8871 22.4689 17.2674 21.6278 17.3 20.7384L17.332 5.8088H20.3944C20.5342 7.13913 21.1373 8.37796 22.0981 9.30864C23.0589 10.2393 24.3163 10.8026 25.6504 10.9V14.46Z" fill="white"/>
</svg>
