<svg width="48" height="48" viewBox="0 0 48 48" fill="none" xmlns="http://www.w3.org/2000/svg">
<g id="video">
<path id="Vector" d="M40 4.71997H8C5.76 4.71997 4 6.47997 4 8.71997V29.84C4 32.08 5.76 33.84 8 33.84H40C42.24 33.84 44 32.08 44 29.84V8.71997C44 6.55997 42.24 4.71997 40 4.71997ZM42.4 29.84C42.4 31.2 41.36 32.24 40 32.24H8C6.64 32.24 5.6 31.2 5.6 29.84V8.71997C5.6 7.35997 6.64 6.31997 8 6.31997H40C41.36 6.31997 42.4 7.35997 42.4 8.71997V29.84Z" fill="#006400"/>
<path id="Vector_2" d="M28 17.76L22.16 13.6C21.6 13.2 20.8 13.12 20.16 13.44C19.52 13.76 19.12 14.4 19.12 15.12V23.36C19.12 24.08 19.52 24.72 20.16 25.04C20.4 25.2 20.72 25.28 21.04 25.28C21.44 25.28 21.84 25.2 22.16 24.96L28.08 20.88C28.56 20.56 28.88 19.92 28.88 19.36C28.88 18.64 28.56 18.08 28 17.76ZM27.12 19.52L21.2 23.6C21.04 23.68 20.96 23.68 20.88 23.6C20.8 23.6 20.72 23.52 20.72 23.36V15.2C20.72 15.04 20.8 14.96 20.88 14.96C20.88 14.96 20.96 14.96 21.04 14.96C21.12 14.96 21.12 14.96 21.2 15.04L27.12 19.12C27.2 19.2 27.28 19.28 27.28 19.36C27.28 19.36 27.2 19.44 27.12 19.52ZM8.4 36.4C7.92 36.4 7.6 36.72 7.6 37.2V39.04H4.8C4.32 39.04 4 39.36 4 39.84C4 40.32 4.32 40.64 4.8 40.64H7.6V42.48C7.6 42.96 7.92 43.28 8.4 43.28C8.88 43.28 9.2 42.96 9.2 42.48V40.64H43.2C43.68 40.64 44 40.32 44 39.84C44 39.36 43.68 39.04 43.2 39.04H9.2V37.2C9.2 36.8 8.88 36.4 8.4 36.4Z" fill="#006400"/>
</g>
</svg>
