<svg width="49" height="49" viewBox="0 0 49 49" fill="none" xmlns="http://www.w3.org/2000/svg">
<g id="video">
<path id="Vector" d="M40.5 5.21997H8.5C6.26 5.21997 4.5 6.97997 4.5 9.21997V30.34C4.5 32.58 6.26 34.34 8.5 34.34H40.5C42.74 34.34 44.5 32.58 44.5 30.34V9.21997C44.5 7.05997 42.74 5.21997 40.5 5.21997ZM42.9 30.34C42.9 31.7 41.86 32.74 40.5 32.74H8.5C7.14 32.74 6.1 31.7 6.1 30.34V9.21997C6.1 7.85997 7.14 6.81997 8.5 6.81997H40.5C41.86 6.81997 42.9 7.85997 42.9 9.21997V30.34Z" fill="white"/>
<path id="Vector_2" d="M28.5 18.26L22.66 14.1C22.1 13.7 21.3 13.62 20.66 13.94C20.02 14.26 19.62 14.9 19.62 15.62V23.86C19.62 24.58 20.02 25.22 20.66 25.54C20.9 25.7 21.22 25.78 21.54 25.78C21.94 25.78 22.34 25.7 22.66 25.46L28.58 21.38C29.06 21.06 29.38 20.42 29.38 19.86C29.38 19.14 29.06 18.58 28.5 18.26ZM27.62 20.02L21.7 24.1C21.54 24.18 21.46 24.18 21.38 24.1C21.3 24.1 21.22 24.02 21.22 23.86V15.7C21.22 15.54 21.3 15.46 21.38 15.46C21.38 15.46 21.46 15.46 21.54 15.46C21.62 15.46 21.62 15.46 21.7 15.54L27.62 19.62C27.7 19.7 27.78 19.78 27.78 19.86C27.78 19.86 27.7 19.94 27.62 20.02ZM8.9 36.9C8.42 36.9 8.1 37.22 8.1 37.7V39.54H5.3C4.82 39.54 4.5 39.86 4.5 40.34C4.5 40.82 4.82 41.14 5.3 41.14H8.1V42.98C8.1 43.46 8.42 43.78 8.9 43.78C9.38 43.78 9.7 43.46 9.7 42.98V41.14H43.7C44.18 41.14 44.5 40.82 44.5 40.34C44.5 39.86 44.18 39.54 43.7 39.54H9.7V37.7C9.7 37.3 9.38 36.9 8.9 36.9Z" fill="white"/>
</g>
</svg>
